<mxfile host="Electron" agent="Mozilla/5.0 (Windows NT 10.0; Win64; x64) AppleWebKit/537.36 (KHTML, like Gecko) draw.io/25.0.2 Chrome/128.0.6613.186 Electron/32.2.5 Safari/537.36" version="25.0.2" pages="2">
  <diagram name="Page-1" id="sAxzSWL6p_wGSLKs3iBe">
    <mxGraphModel dx="879" dy="595" grid="1" gridSize="10" guides="1" tooltips="1" connect="1" arrows="1" fold="1" page="1" pageScale="1" pageWidth="850" pageHeight="1100" math="0" shadow="0">
      <root>
        <mxCell id="0" />
        <mxCell id="1" parent="0" />
        <mxCell id="KkUMTCBFCGIkxOhparHm-37" value="Data Central" style="rounded=0;whiteSpace=wrap;html=1;verticalAlign=top;align=center;" vertex="1" parent="1">
          <mxGeometry x="320" y="149" width="304" height="380" as="geometry" />
        </mxCell>
        <mxCell id="KkUMTCBFCGIkxOhparHm-10" value="Discover &amp;amp; Governance" style="rounded=0;whiteSpace=wrap;html=1;horizontal=1;verticalAlign=middle;align=left;" vertex="1" parent="1">
          <mxGeometry x="140" y="550" width="620" height="50" as="geometry" />
        </mxCell>
        <mxCell id="KkUMTCBFCGIkxOhparHm-9" value="Store" style="rounded=0;whiteSpace=wrap;html=1;verticalAlign=top;" vertex="1" parent="1">
          <mxGeometry x="333.56" y="340" width="277.44" height="180" as="geometry" />
        </mxCell>
        <mxCell id="jRpKmqhvLrliLZ2Tn-jW-15" value="Process" style="rounded=0;whiteSpace=wrap;html=1;verticalAlign=top;" vertex="1" parent="1">
          <mxGeometry x="330" y="180" width="280" height="120" as="geometry" />
        </mxCell>
        <mxCell id="jRpKmqhvLrliLZ2Tn-jW-12" value="Ingest" style="rounded=0;whiteSpace=wrap;html=1;direction=south;horizontal=1;verticalAlign=top;" vertex="1" parent="1">
          <mxGeometry x="235" y="180" width="60" height="350" as="geometry" />
        </mxCell>
        <mxCell id="jRpKmqhvLrliLZ2Tn-jW-3" value="Producer" style="rounded=0;whiteSpace=wrap;html=1;direction=south;horizontal=1;verticalAlign=top;" vertex="1" parent="1">
          <mxGeometry x="140" y="180" width="60" height="350" as="geometry" />
        </mxCell>
        <mxCell id="jRpKmqhvLrliLZ2Tn-jW-5" value="" style="image;aspect=fixed;html=1;points=[];align=center;fontSize=12;image=img/lib/azure2/storage/Storage_Accounts.svg;" vertex="1" parent="1">
          <mxGeometry x="381.52" y="460" width="37.5" height="30" as="geometry" />
        </mxCell>
        <mxCell id="jRpKmqhvLrliLZ2Tn-jW-6" value="" style="image;aspect=fixed;html=1;points=[];align=center;fontSize=12;image=img/lib/azure2/analytics/Azure_Databricks.svg;" vertex="1" parent="1">
          <mxGeometry x="452.84" y="227" width="44.33" height="48" as="geometry" />
        </mxCell>
        <mxCell id="jRpKmqhvLrliLZ2Tn-jW-8" value="" style="image;sketch=0;aspect=fixed;html=1;points=[];align=center;fontSize=12;image=img/lib/mscae/Event_Grid.svg;" vertex="1" parent="1">
          <mxGeometry x="240" y="330" width="50" height="50" as="geometry" />
        </mxCell>
        <mxCell id="jRpKmqhvLrliLZ2Tn-jW-14" value="" style="image;sketch=0;aspect=fixed;html=1;points=[];align=center;fontSize=12;image=img/lib/mscae/Event_Grid_Topics.svg;" vertex="1" parent="1">
          <mxGeometry x="145" y="333" width="50" height="50" as="geometry" />
        </mxCell>
        <mxCell id="KkUMTCBFCGIkxOhparHm-1" value="" style="shape=image;verticalLabelPosition=bottom;labelBackgroundColor=default;verticalAlign=top;aspect=fixed;imageAspect=0;image=data:image/png,iVBORw0KGgoAAAANSUhEUgAAAFIAAABPCAIAAAD3BgWJAAAObUlEQVR4Ae1bh1tVR9rfP+Dbb/MkeZKoQbmKICKIIIpdWBElNlRUlDWJJlaMDUSjfrbEqChEo8YYe4yIJahrBMRslCKWaKSIoKAURbhtTrmnzZmZ+z1zKGGV4qW4sGGe3zP3cph37vmdd87MvGX+Yv1Tlr/8KVlb22n/mfTeru12bf/XP4GWHOSqSiSZCCIRhNcEUbIqihXhBtXWUrSJKOCnT1FODvr9HrpzF929S+uWw13tJzKzUUEBNhitsmwlpB7yLUKbKAp6/AQmXJa+Pyh9/Y20I1qK2ilFfd3i2PudfOoMvPUbLtdbVfX10iYEm0zKv64Km77iQz7iJgRxYwO5cRMpxmp1xfdmqas7HBtIf2XqDMuyFdKx42p2DhHF10sbIVRYKB09zoXMYjy8GWc34NQL9HClcGo59ALdXYCbJzd6vLDxS+VaKgbg9dJWVfQgV9y5mw2YAHQ9QGcH4OjC9PFi+g1ivIcy/Yc0J7y13rwGMW6ewN4RdHZg+w0RloYplxKwXv96aUOIsu9L26PZkR+Y7bqZdU7MwKH8tBDLgs8sS8Itny1vTiwOs3y2nJ+7kAsMYlw9QaeujHs/S+gS5cJFXFb2n6C942vWf6y5s4O5pxs3JVjaHq2ciYOJSfBSArwY32yIT4Q/xysxseK6jZyvP7DrxvT2soQu/Y/RFito23UDbh6WeQuVcxfQo3xsMOCyMlxa2mwoL8fPn6Ps+/LhY/y4SYD+nKdlURNpEytd/QjWalJvjWmziqIN8j9ou/e1LA2D11IIx1U2oH02E2iPhOgNStx5Pmg6pe3aWNpEVojBiPIL1Kz7amaWmpmp1Vn11RmZanY2LnhMGIZwvJqVLVVr293LsiwcpqQSi6WSdnN/YKNJOf/PGrQb8W6rKi4poTuNqJ1CxGohfJUQvlJYsao+hK8UwiLE1f8n7/kWXk/HxSVqRqYUtZMdNdZs1w24e1Ftt3LaRBBgerqw4QvWfwzj3JtxcmUcXIBDz/rQtQfQOTGunpagYPnwUZSVrf5+T4rexY4e9wft5BTC882t5sr+sMGonLvQJG1jAOS48/ysT0EvD/B2R/PbHc1vvGv+2zsUb9SB/33b/D9vgg72nF+AtGcfupeh3v1doz2+7dA2GqXjJ7gp04Fzb/BeF9C1B+PmyfQfTOE1sHZ4DmD69GeH+FpmzVVOxKKcB1XabkO0TSZKOygY9HAzd7BnPAfwH84W1qwX1qwTVq6pHRGf0zd/7QZp73fau12s3svQ3u02NMhNJunHGKrtHm7mjjrWf4z07X548xa8eROmpdeB6zD1Oky/qWZm4+dlhGHUzKz6aCNkVaEVKtQ2ho0EgdCKK5fM5ni3K2gHabQ76bjJwfCXXwmEFIpSP6xQpbeiKCj7fo11W5vJ6ZSmLWCqSvR6/OgRyspGGRkoM7MxyMhAubm4vNyKkNVqxcamT2kv0J4WAm/csm0GRuhF2svC1KoFDDOMmpYuHzgkfrVV3PCFuPFLcdNmW/AlFVm/SfpmD7yajBnGSggxm5u6buMXaE+ZDpNTbaP94i7Ny1KDNnr2TP4xxvLJXPbv/uzAYeyg4ewQXxsw2IeKeA/hg4Klg4fRs2eUNgAtQPtaSnPSLimRDh7mgoIZdy/GsRfdF/TsbQOc3RgnV9CtJztitLh7r1pcQtoG7fJy+ac4y/IV3ORg6g8ZO5EbP9kGjJtERQLG85/Ol2JiUVlZK6a9NExNrtyTE45Tb/8mn4gRd+0Ro3ZSRO+yDVE7xe3R0sEjMP0G5lhqi5hMTd6lvfxuN32Q16BtpTO5AeXnq9n31axsat5kZdsGah1lobyHmp8QUtrNP5NPmQ6bgzasuSfHmLo1oWqFsPFQtcVSm3VaYN1uCdq2zZANt26nXeFmsN3ermXdbvZB3rD+bGvRru0/gbarY1ytXNvUFCGyrPk6s9Vbt9X0mxQ3bEf6DfX3e+jpUyLLminSOtftyj25QG/RZIK//EuM3CEsCxcWLhZCFwuLltqA0CVC6BJhwSJh3Sb5UgIymuijNLfePXkasVDaqKREOnSEmzqd8ejPOLkxzm6MSx8b0NOdevgcXdiRHwh79qnFT6nnGTCt1hSpol1cLH73PTtuIo0E2jmALt2BzskG2DtSkU46doiPEL0LFhZpe/LWT/v5cykmlpuzgBkZwAz1ZYaNYHz8bMDwEVRk0HB22gzx8BGVGp7W1qzt1IpBjllWuXlLPHZciN4pRO4QIqOE7bYgMoqKbI0U9h9QUtM0N4O1ZdwMzbpdIaqKjSb0pFDNy1NzczXkqbmvDk0k54FaUID1eqKlLNCoSFP95C1jgf2bKWLbHqzh1i3gS2s3RRp+7BUtXvalLQ1rWW03QzCoLQ7ydtpafLvd8KzjzXwxHa8l7e2qsL4kEYbBRhM2GGltNNoITRCA6syz1j2Ta9kMRBTRg1yYdEU+/ZMcc0o+eboxOBGrXLyk3r9fwZxm/7XGdbvCAhM0C0yvV87/U1i5mgv5iJsUzE2ezk0JsQFBM6jIxKmW0MXy6TOovJzmrrTqqIhGm1pgBw9xQdNAn340KbGHG+jpbgOce1OR7i6sX0VUpLgVhwdqxsBKS6UTJ/k581m/Uezg4ewQH3bY323AUF8qMnAoN1UzRUpLm5e2FtbvpOMav0uLZv3HmN/vWpGyUx0VwSYz/PWqtPMb4fPVQtgKISxCWLHSNoRFCMvCxc1blctJ2GzW3Aw1I54elkXaAvbclixEOpPHxHLTZgBnN/N7nbnAKfBqch2rQB2XIUQZmeK27axfQCXtZSvUlLSKBC0iyejxE/X6DZh0BSYkUiRetg0JiTA+AV5LQfkFRJK0qEiNBK3efS1LlisXL9Hod93lxQWMACCfjeNnzgIu7qa3OrCjx8HEpLrFa/kPkWX19m/Cpi9Y35GUtqe3JWI1TL9JBC3TGRMiCNhsxnoD1usbiXI9MZmIIFQkNOByvXI2jp80DXR2YDy9hYhVStIVbDLWcnNVl16izXFKfCI/fxHj6mn661vsEF859jRRlKr2DX8Si0W5lmyJWMUOHm626woGDBU2fQUzs6o7qfZ4NtzXq7TAGBcWykd/4McEgi6OzIChwroNMCUVszQqWFd5ibYowrTrwqq1bN+B5r++yfTpJ+6IRoVFREuXqKuXmtexwSCfu8DPmc/09Qb23emUu2cfKir6IzuzZusmfyeCoP52R9oSyQ4bAbo5s77+4rYd6p271ZuZWn/hJdoQqvdzxB3R7HA/81vvASdXfl6ocvkK9WO8SsEYPXwo7dvPTZgMnN2AQ09u8jQ59gxm6ktqf5WOa21DMMbPnytx5y3zFjLuXsC5NxcYJO37Xs15QIOKdZcXaVsJwaXP5YpkJZ0j0DmxI0YJ23bAexk0Oaihgg0GJT5BCI9g+w8G9o6MR39+aThMSav/5EZDvdb5f8xx8MYtcfNW1v8D0L0n03cA/+l8+dRZVFRcncdUq/BLtK1WIorwarJleTjj0R906gocXbnpH0qHj6InhbV2UX2RsCxMuy5u3sKNDQQ6J3NHezZgvHjwMCouqW7TvF/Qo0fS/gPc1OnA1QPYO7I+I4W1G+DVZGJuYHDVQttqJeqjfGn/AXZCEL37dzszfQfycxbIsadQwWO6DlXkhFWmXRMrQkSScFm5mpoqbo/iJk5lXDzM73dl3DwtyyNozoFIt6VNTaau7EHrB0LCcvhRvnIylp89j3HvS13OvfrwIR9Lh46hvIdWuYE5uFbaVszx8PoNy5r1rPdQcwd7YNeNJgfNWUBT8369ivLycGkp0RuIXk/Ky/CTQvXOXfnMT8L6TdwE7fCCnQPo3ZefOUs6foIezGIYYtAaU5FGwWAgBiPtxGDEpWUoNw9e+UXavdcyew7TbzBNI3d0YUeNETZvhWnphOXoI6631E6bEIL0BvnneMvScGawD/XIv69jXD3ZCUFCxOfS3n1yTKxy9pxyNk45fUY+dETYEsl/Mo/xGUkTke0cQC9PfuZs6eBhePu2mpUFk1OUuPO0cdz5xuPcBeXCReX8RfnkKWn3t0JYBDcmkHFxN9s50Ilz1Bhh7XrlchIqKycNcbZa6z6/TVSEnz1Tfo4XVq5hh/vRUdRRB3q4sYOGc2MD+eB/8B/O5j/6hA/5mJ80jR0ZwHh4g27O9MG7e3HB/5D2H1TvZaD8fDrDbfqKnzWXnzmL1o3Dx3P4T+fxCz7j54XyM2ZyARPYAUOpJUP17MqNGieu2wgTk9CzZ0SleYkNltq1XSlGCC4vh79eE7dEcpODgXNvmmf9t3fM79pR/Ts406NXXXuATjp6/c0OoEt3ZogvH7pYOnJMzXlAeI4eCDt0mJ00ld6izqnx58AcewEXd9BvIPD0Bl2daMb3G++Y3+rI9PLggz+Uor+B11JweTmpykJtGm0aocSE5Wjq7NEfuNlzmX6D6K/qnOihq5rQOQFXT/aDQMu6jXJ8AnrypGLZRIWF4vcHaMTL3hF00lHBxqFLd/qIPftT2o4ulWfL+g/iP5krH/sR5eQShm3wfa75LOrVdlVDAiEqKlKSksTd3worV/Oz5/ETp7B+AayvP+s/hh4xXLhY2LxVPhEL79xFRiOpOi6Dnj6VTsbycxeww/3YwT6sz8hGYtgIdsRoduIUdloIPVI2e66wdp207zvlyi+oqPgVB3YVG/r5SrQrBAiE2GBUs3OUxMvy0R/Er3eJ26LEXXukk6dgapr6+Ak9+/Pv0wk2m+GNm9KRH8StkeLmreK27Y3Elm1iZJS4Z5948JD8Ywy8nKQ+eIAZ8OqjuiZn22hXSiKEAYOfPkP5BejhI1TwGJeV1XXqhygKNplQYRHKy0O5eSjvYSORm4cePkQFj1FREV07Gab+TdgLJF/+0wZtvyzcdq+00267urP9ztu1bfsza7sS7dpuu7qz/c7/H+6IkVf0nRU/AAAAAElFTkSuQmCC;" vertex="1" parent="1">
          <mxGeometry x="364.43" y="560.0000000000001" width="31.14" height="30" as="geometry" />
        </mxCell>
        <mxCell id="KkUMTCBFCGIkxOhparHm-2" value="" style="shape=image;verticalLabelPosition=bottom;labelBackgroundColor=default;verticalAlign=top;aspect=fixed;imageAspect=0;image=data:image/png,iVBORw0KGgoAAAANSUhEUgAAAGkAAAA3CAIAAACAZPPqAAAUgElEQVR4Ae1a91dTW76fP4SEe1+b9dabmfXeejPrzZOcHqRXRYRAQkDsWGgiRQS7Xvu1e22o2Cl2xTIXLKDYLkUQkAQICemENEiyn+fssDkmgl5nfpgnk8Vi7ezz/X733p/z7Tu/Af/4fC0Cv/laxv+vfC6DWl8aZZELDVKB/nDuX3OMaYedZmPSaEZgX3LAgCRgbF6g8cLWr4ZvemHnaH9qlAn7JQHKZPZvMEWgkQY6e1u/Dr7phZ3p3CZbuhACp0wOUCQHDKcJNetm/wO7zyMwtFVqTmOx65OwNssOkgMscuHIz5c+z+xHMY30zuMaU2VjWqmgLzmgL/V7ZUrggIRVPa1UoF7y326r2Q8cvwmnnU82jbBz6Qf6ZP+sSgkYShUM5tOWuycNMhZHRXKALT1Qf6LEDyp2wjPqHH3/i/XWUcOODPWy/9Es+oNhi2RM/R4AMI2wc7Q06DilM8mEmvWJAIChjUnDcqEiOUAlEQzJAp3v3yD4XIPd1oeVhn1Z6pVBqpSAEbnQnCYcShWoUwRg/ne63QunF3aW28csctbZjciFhuOFAACnol0j+06VwqqeSSZUr4m2Pq01nVozVBQ6IP1+WC60yIVaqQDFZRhkRuRC3c550ws7w9FVEDuLXGipq4AqZqgos6UHKjjL1aQKjDIWL71UACMJzGP42PVLAsxpQvur+9MLO3VZvFEm7Etm/Z2j/SnEzm2zDGb9SScVQJ3q4/K+AUmATioYkQtNMuHAwv9Uyn+L4LOnB+qPF0HeaeTv+hf9lyZVMJgi6JP/q8ugRq5t5HH1sFw4IGExHU5j9a4/RThUIDafKHK8umd9flu78HfQrq3pQu3mZOBxTxfsPKMOZ+sj09E8lYSNqjqpQJVLovNDFDTrE23pgerlf9bvWTRSVzHW3wk8HgCA224dyhbppQJFEpdF51PTIkfx2CyOF3WmnwqGskVaqWBYzlqrkisktNvTkdLBgcugdnU+8zjt/HmP0zZUHG6RC3uTAvRSwdCiP4wO9vAJvjWbdQ/r7I3XjPuz1Ev/aJQJR+RCbaqgjysh+iUsBGDhd6Zzm/gQTDbW7ciwpbMZjCZVoE373t762Ify28HO/rbJvH+peuHvzZzP0qSyFqrk+iUGmdAqF6pSArRFoSMXt4zp+n1Q8P9qqFhrTw+E7KzAh+f9ab4R7Cy3jum5yKhOYSMmm+6mCEyc3vWnBurWxozU7B3tmUh9/YHgzwzfOcFGDAlb7drSA40XtvCfovG3gN2YqntAEqBNFSg4RVMmB/RLAgaX/tGwXW69c2xs4B067ZcM7C/qhqRs/QC7LLo9iyfj+htjZ7GMdHd38xfT6w2dnZ0qlYo/6XQ6u7q63G5vsIePenp6Xr18ZbPZ4Febzdb7vheOe3sVFosFjvV6Q2tr2+vXb3Q6HZyxv6wb5rojKEfTSANNR/PdJi0k+PL/LqOmL+1fdFIWOJ1UoCkMAW7XZOx/Y+zycldhQYTJaELrrS4ojImKi46MvX7tOprcs3svTYoRym6Pe/PGLTGRsTFRcQ8fPIRkVVeqMzPmAwBcLld0VOyb116L27hhc1REjDQ1raHhEaR0GTX96b+FB0a9OZ1UoM78d9O+JY7XDzyuMbT01AOPw6ZePdMoY0s3tmWwMsjj9L5Lf8Yvws7tdlsslpGREX9+/szLFy9DgsPCwyJfvXwF591ud8KsOU8eP8nPXZWbnQcn+/r6oyNjoyJibt68BWeO/XQ8Jiquv6/fwn3g5LatP+SszFUNqB41PI4IjzKbvD0iaYrs4IFDve97PVwKBolHfr5olAlNad5EBCI4mCJg7yVkgqFVzEj17tHeFkg89X/764ds+cGFZmu60HRpx2T0U2Hncrnq7tatKSmVJKeGh0VGRkTL0zKOHD6KjMVHqFyWvnXLtsWLlp4/541KOp1OTM9MnJMUHzvr5QsvoIWri/LzCooLS7b/4N3WnNlzr1yp8pGWl5MfHhqZMCsxIiwqIz0TPrXZbNFRsYkJSUWri33obc13DUWhpjS24YFKKAiiPSMQzP9upHIdAOCzGgAAUK9LMKd5s5PB+f/hNn/a9ifFrqWlJXPeAopgSJzBRRQuInERSWAUTYpnxc1ubm722XpDwyMSp+ckzA1mQn7Yth0+bWpsCg+LbGp6ptV6l+/sfIeLyFnxCWEhETnZ3msqeVrG2tIyh8Oh0+ncbjahd7lc8bGz79y5q9cbNm7YnJe7Cgp8+7YjIiyyo6Pzk+/P43bZn900bJFoUtlqVMU1h23pQn2uCLTXDxlMRYUlDx/8xWfn/l8dHU06rn3CtfaEhooyf5pJewGPHz0R0yEkTotm4P5/BEYHi0Pfvn2LJDqdzsSEpAP7D+r1hoMHDsll3sS94lTFogUTccrtdi9dsqykuFSv19dU18ZGx4+NsZ6ouflFWEhEbHR8+dp10BIH+gciw6MhQDnZuYcPHoFrPbj/kCbFkqSUI4ePotX9B6Pvms2HVqjT/kkvEzoqy4HTduvBo5joeJoQd3Z+UdjVbJNZuNbeYIpgMP3fPpkSfkLv3r9/P1McSmAURA0XkSROkziNBREIRxKnoyNjkDY5nc62tnYYN61Wa3e3t3bRaDSDgxNVt8fjaW9/63A4AABjY2NdXV0ulzeKabXaxsYmJNBut/f09EAcFQql2ex1dmaTuauru62tfWjo03bEx3G0r8PZ+VytMxaWlJE4Q+L0zOBQg8HApwEA6HR616jTZRrizzt7WzSpbINAkRxgTRfqjuTzn8KxL3Zut3v+vIUUzkCYCIxOTJhbtrY8JzsPCyJwESmagWNBBEUwK5dna7XeLMFf7t/PTEZ6JkMFi2bguIicm5jskxg9f948b94C99iotjx+eP2skapdox3P3HY2KuqPF8PURyURqNO+H/XLE32xa6hv4AFHFRYUoYSrqelZaHAYRTCYiDx10ts7/PvB6JM7GbGMhIdGwldOYvSypcv5ZAqFIiIsSjQDdzhcw/sWs/FEzjbWVVl/0u9fbqzcqJZ938epHlsX751wPlCIL3Zbt2yjCFbpsBmslr1718VfrLamVpKU+vzZc/6k/9hutysVypaWlo6ODr1O708w9YzD4Xj3ruvJ4ycP7j989uy5T149Na/PU6VCiYtI6G0onFm/biMi0Ol0c+ckc5GQ7Hg/4Lp1aITryPePN/K4hNHbE1WlCAZSA8dUH6X9vtityl+NQgSJURcvXESLsZdGHg/K7/nzcOzxeB48eFhStCY+djaJ03DTIcFhy5etuHnjlo+x+LMDAFpb27Zu+WHO7EQsiCAwisRoAqMYKjhryfJ7dfc+yQInXS7Xndt3N23YnJudl70yN3tFzsEDhwAAL168JERex00RzLGfjkN6q9WamTGfIpig/8VpQlx16z5o/4sn8zsNVw6jBJs/sMiF1sc1/D34Yle2dh2yWSyIENMzf3nzC59hsvHzZ88zMxZwLplBrxoLIrAggsRpimAWLVjS0/NR/4svymw2b960BReRFDHBDn2uVwLOlJastdk+arFBCT09PTCdoriAQOK0mA4pyF8NALh+/eaEKuD0zRs32Y6m252zMheaF7sizjS//gU4hvXb0wcX/M7EtWGGxjtXEL4BSYBRJnR0fmRwvthVXamGQsdjBRUTFadU9vHP6T+uOHUaxyi0SxhP+HFZNAOnCCYyPPrt2w5/9p6enhSJlCbFiIUD3WtrKLjTpHhZ1gqnc5QvQaVSxUbHo/cNiSmcgUnM0SM/oeN8yCuhHpSXraMIMRs9gsgPWlnH02j3sM7RdN10OEe9/M/aVIFVztYq5jShOzNQu3shbCaj1X2xM5vMEWFR+Liei2bgJE7PnZOs0XwUwhE/AODggUMUMXFslNAQGMXaHS9JJHE6YVaij9UrFcq4mFno8FARRDPw0JlhDBXMCZlIM2lSvHPHLv7qudl5EAj4wuDqwXRIbU0tAGBd+Qa4AZgbDA8PHzl8FNJzboG+dnWiyuaL9TjtzvYnlgtbdJuSDZuTLNcPAr+i2Bc7AMCtW7dJnEEqwMHHpEnl/AofLXPt6nU28nKpHyw88vNW3bl9t7u7R6FQ1Nc3FBUWExiFpNGk+NDBw4jdbndIU9LI8ZSIwpmEWYlnz1R2dr4zGo1qtbq+viFr6XL0Alh9FBFdXd4I1t3dA90CVCIxHZybnbe6oGh1QeG7d2wOvHTJMoJ7ebiITExIOnjgEMxbOT/AXLzwNT9DQZv/BHYAgEMHDyNV91oBwSyYv8hqtSJOAMCganCmOBRmALiIDJ0ZjrogfLJLFy/zMm0qNjrebve6rf37DtAkaz5QwdeVr/fRSiinsKAIwUcR4p07dsP5G6w747KCIIImxc+ff1QpulyuxIS5cHtQPgKaxJm/Ps36NHYAgA3rN9GcU0DuhiLEK1fkoEoAALB501ZIgwURDBX8crx9wgcOjtev89oOzFFbWtifvGnUGoYKhipJ4nRhgffe059dr9OHzgyHlARGpadlQBrkznARlZQo8WHU6/QzxSFI5dFBCIxCAdeH5Vd9nRQ7t9udn1fgo300Kd6/7wBcwGg0IqWjcAbmBJOt3d7+lv/+b928DQCoOHUauZ6w0Ai9fqpMsKRoDVQ9XETGRMdBzS1fuw5Okji9LGuFz+qdne9EQWwVhFDzKjhGV54950P8FV8nxQ4A4HA4lixayoeP9a84pVQoAQAP7j+A+4ZKNzR5MAEAsL2jyFgIH4Uz1VVsorR44RISY+MAhTObNmyeevdnz5yFO8FFZHRULKx2Fi9cAr0BiTMb/SQ01D9CvgLqO8QRJj2omTr1ulM8nQo7AIDZbE6VyJCvEc1gM8mTJ06Nh1fW1xAYhfprk61ktztiouMgdiTO3Ll9FwAQGR49PkPfuM5mXlN8qqtrkN4lzknyeDxuj3vObK87owjmxPETPuyXLl5CLx4LIsrL1qOoRWDU3MRkVG76MH7h189gBwBQKvvCwyKxILYLAGNu6Rq2n1VUWIzsJTfnE20G/g66u3vQvnGMamttGx62oISOwOj6+gY+vf/47JlKmMcQGLWQ62vp9fpgxuvOSJyGfoDPuGf3j5AFm8Gm6P39/Xt270VoUgSzccMXXdTyZfLHn8cOAHDm9FmURpA4XVTI/swvXT4PWgSBUZkZC/hC/cc8p06GhUR88AZarRZhRxHM5UtX/Ln4M7t37YHHJnF6TXEpAKCjoxPFzQ9O0D9SFRZ43y7GRWGzyWy32+NiZyFD/tBYu1fH/qLp6z4T2Dmdo5Vnzy3LWsGPpFDoq5evCM4xQd+0d/feD6VidGQMtDjO34kH+gcm24FKpQoLiYCaSxHMuvL1AACr1YpslsDopUuyJmOH86vH0xSKYA7sPwgAqP+5Hu4K+q/+ft8b63npmRAmtlMdlwD7hvU/1yMXhIvI8NBItVoz9dKTPWWxc7lct27eTpXIKIKhSfHV2ms+1Lt37UHrUTjT+LRxeHiY3w0lcbpgFVs/+n+0Wm16WgZkhx1AlNku4yW9BEZVV1X7swMA7t974HA45mcuhECQBFPFUV44f9E/eiAJdrs9dtzDEhg1P3PCMspKyycsF2dWLF+JuH7VgMUuLyefIsToFYWHRjY3v4BSRkdHz5w+i1wVgVGz4hLcbndLSytUOhT+SZwuXVPWz9O+sbGxu3fuzo5PQLjTxESKAwCorbnKL6dwEXn44BHUs/J4PK2tbfm5q+ZnLvR43PFxs+GKBEY9fdIIAGCtmEuMCYySj2d86PAq1SBFeHvdJE6XFK9Bj4xGY0xUHKo7KYI5c/osevrlAxa7Des3oTOgWJ6bnVe2tjwpUcLXL4pgbt+6AwC4c/sOQoQPXzATkr0i54dt2zneZAJjL4kgAUUwy7KW8x2Cw+GA8iEBrJPCQyOXZa3Iy8lPlciwICKYZm+OrFYrrPygg4M9/dWrCuEeWK3nuib8Y795/Ya/9L4fvWkppLlXdx95cFjqvm2fuH7hy5lizGKnVChJjG23IRSgB+F6cN7mF5udkOLyMvaaDgBw6mQFUnvEhapx2AviC6RJ8YLMRZZh790+2lBLSytNelUeykHXI1DZKZy5cP6iUsm2MGHRGjozHNZtKFhRBLNrp7dKQ5Lv3qlDb5dkM0pfh1C4uhgdgcTpFIkUOkSPxzPKfZCoyQYsdjDFR1GPjwU6D02IS4pL4bUWrMbQe2MTF+yjmyC+BBJj74nKSst9amG0oUcNjyJCo1BDgc8rmoEzZHBD/aPGp42QgMRoWHs5HI6YqPFkm2DOn7uABMLBqVMVqDdDYNSTJ94fySIynU4XEeZtx3MtMjG8L3a5XLU1tQ31DVVXqjo7Oi9dvIxYfAZe7AAARw7/RGAURTDQ0NimiIjtIFEEExMV57O5lcuzkb3s3fPjsWMnQrirDBJnCLbZy+LFihJRCzIX3b//wGdVn68KhaKkuBSycDfCNIkzcCeSpNShIS0MC9AaVq7IAQD09fVjQewFHrwyfvjQ99Z1TcnamUwohTM0If6gVl0fXx7ADdy8cZMhgylCTBEMRYjFdMjV2qsAgManjW1t7SeOndz34/4Tx0/67BZ9ncAOANDW2rZz+655GfNjo+Njo+NSklNLitfU1tQajUbEAPuukuRU2Mv+oH11d+tgT+XypStrS8uylixbujirqLD42LETr1+95jNOPe7tVVRX1ezcsXttafmWTVsrTp1+0fxidJTtdGq12q6uru7unq6uLthJHBkZaXza2NTY1NjY1NTY5N99efz4yaWLly9funL50pXqqhrUufHZw43rN85Vnq88e67y7LlzleevX7vBNik0Gp1Op1QqOzs6lUq2AP3k5yPsEIXNZrNarfwffKBHAACTyRwWEuF1QCLyxXhQ5tNMh/GnsZv65D093o4jzNf6+nyT0qnZv5mnX4Nd49NGlAxGR8Z8ya9jvhm8+Af5Guyqq2rgBQWB0dLUNL64aTX+Guz2/3iA5i53KILJ+1wH5RtG82uw+4bh+FVH+z/iIlAPWWZXPQAAAABJRU5ErkJggg==;" vertex="1" parent="1">
          <mxGeometry x="346.59" y="252.5" width="66.82" height="35" as="geometry" />
        </mxCell>
        <mxCell id="KkUMTCBFCGIkxOhparHm-3" value="" style="shape=image;verticalLabelPosition=bottom;labelBackgroundColor=default;verticalAlign=top;aspect=fixed;imageAspect=0;image=data:image/png,iVBORw0KGgoAAAANSUhEUgAAAFAAAABpCAIAAAAiBjOfAAAIgElEQVR4Ae2bz0vjThTA+4f05s2bRz311pu33rwVtiBeLHjQSz0U6iWwiNCDQkuhICm0lMpGxFJLIdClEigptAQEtRAoChZRVIT5Yp+dTiZJnaRJf3w3y7I7mcyP93nvzXTeS+JD/9gf3z/Gi1wBVjvizd+iVOIuDjcELiRwoez2ciriH//37GAdGjcKiaZwpHbE54d7x+3hDPDjndy6PL462cztrY6nsnH37GC9UUh05crnx9vk/BMB30rnVyebma2lMRi5vVWwm8CFGoWEVOL0f8vJMLQ5O1gfM1Qq4he4ULuaee33bJPbAX7t98Tsrt5Ls9vLQKWIvNoRJxFL7YhduSKVuHIynI8F9FoQuNCtdG4D2xrw+0u/UUiQJj3dWamlozd/i+8vfRvTs3fpypU6v0/BC1yod3PNPghCVjatxzsZWzWztVRLR61OZkkys8bPD/dN4YjcLKQSZ9ZYX89qYUyb3V5uCkdu21MvqL7mVjrHBm9XM/oGhjVMwJ8fb6c7K6mIv5wMT7IyDSWYpPLz460pHMEKf7yTWYZiAm5XM6mIv5aOsow4/TaKyKcifjG7yzI1E3Cd389sLc2DG5shwQnH7C5ZzwRcS0dTEf+TqpA956pcjAcFLsQikgXg3N6qG2c9FinHtwF7OA+civhPd1bY98PxUjpyt3dzjQ9nzgNfHG7AfliMBxWRd+Rkaxu7K1fKyTDIk9lagsCDZTQLLo0QkkocPuVlt5fF7O6tdD5N8sc7WSpx5Kkjt7cKlc5bGPT3eCdj1WL4i8MNqcSpHdGNnbx3c92uZmrpKJwF8KSnOyuty2NQt1Ti3AIG7CdVqfP7pKaxHLm91XIyDCFRV66wh7WfH29qR1Q7YuvyWCpxtXQUr088OBTKyTC1plwHxqsFuxMlk+OX+VhAzO6aRSnTA8bkCCGc6Cgnw2bGYVQERNF1fh9SHz+eZ2cDTMJD+bXfAy9tVzP6uJ+qAf+3F4HNC7BeBS7VeMCmirX2O2w6zKxveBY2tYBnYSPVQDhidGde6lxxacYcykx00CgknD9aFuNBN47Kkyvo8U7ObC05D5yK+Ivx4LzZWRF5SB47D4zz77V0dB7SPV25InAhfFZ1HrgrV3AiPhXxnx2sUyHL5M7JMsLzw33r8hhnpFMR/8XhhitJPITQa79nGAy3Lo9ddfXPj7euXGkUEsV4EJs0FfHDUwGEUC0ddd7CWP2Pd7LZQ8Ozg3Uxu9uuZtSOOInbPz/cqx0RomIKEoCz28tSicObqLvAQP7+0ldEvpwMk35Oqh9Lhh+XitldKkLCl1cnm9AM7xT6ocCktXRU/9xwGsDY4AgheCBeToapLIyh0FYr87FAORkev2qmDUzCQ6amdXlc5/dZjIb54bdU4ELgCJYWxSyBSXiyDMsS8gHwr4P73DwCk/COlz1gU5X+T8JDz8KehYca8Fx6qAnyf8h4/JgNJ7tMuezKGm4UElPGYJzu/aWfjwWcDx5SEX+jkJjmw1EW4Nd+D6ILV4BTEX8+FujKFRZR3G7z+fHWujzGoYvDwLm9VfJpeD4WaFczODpzm40a/0lVGoUERs3HAvDwjWpmeMm6S+f2VhFCXblCxkOZraVyMtyuZqbzsovaERuFBJnrgLfH3l/6EKUYElKV1oChsyLy+kfh+VgA3gO4lc4nCf1J+Xo31zd/i5CCxUEVLpSTYRx+uAsMMqkdUf8aApYmFfGDm12dbOIo/1Y6J6MlsqyIPDSD7BRlRnLYYjzYujymfiOnAYxN8fxwfyudQ+5/fL6ClNtSOR8L1NJRReQpTizDVIHxrFB4UhVF5CH6N0xH/YgKP6p1fp/9RZlZAlP85CXpw1R5wg1/ToFJeGfLHrCpPu38LJkONrsbnoVNde9Z2Eg1tXQUjpZGN+eiznmXPt1ZmQsyEyEcBm4UEqmIX+2IJtPNuPr9pe/wGwBduQIPsvBhfcaIxPQ4AcD4uRbTpoUQws/a6/z+hKciQtpJizgBkNtbZUzFsAK/v/TxwRjehXcqBrQB/drvkV/jWfr6hBUYIfT58QbpS3z6L8aDTeFoan7+2u8pIn91sokFgPcdzEIoQ1VaAIb+akfE7o0nPt1Zgbh3wq9o9SKqHbFdzdT5fexfeFKBC9nYRy0Dg0zwCQCZ7sFywPYmcCFIgECIR8ZG5GJ7vJPJW/DyP7wNoE+qwBSwoOy9Vm3tc1q9+hFCvZvrpnCEv/AhsZ0tw4fxNkxKiW3TwtQocKl2xKZwBA8BJqctxoOwTJz6+h+EdBKY0sKTqoC7NoUjnNYSs7twKoJ/a+kovoWd39Vd0EVgin9OLj3gOTGEa2IwWFj5vebT/ln7Pb9fEv+kKVbgX3/wSH9++Xy+hWW2AYzQAJlQAdbFAhScAP7iX/utDF2fMP5AM3g5aFX03Qu0B22InsPBcGddC7KjBYezAzwQhpB+IPramo+oQt9uQCAM4Olrn2/Ui25Augvwj3pr2w7ujm6SHXVl68CDuTRsg5qR4IM59K3olaCV+auTqdyAO5pzcD26HHbV1OhIvytYgTWuRY1sAGdQRYv11YSyyphepD4Neg78mxrNGJkVmGQcyEVIoBfAxFaaan0vMDE501BJxGTfjqAxwPeFa8C08+lF15CNNK2p1vcyAB700ODSk49GZyvZsfBwRxrawkB0g6qhtcb0GuAN7w/bU7j05GyYo1b2gDWmMlw/X8S0qNo6A51ogY2sC4JrBxrBsJTsAA/mI2gMRB/agVhWtJQGvUhgc1xsemLwr9VAuMYYclZg7SahHdtAdJgRhB521XYy8osR8EA7w47E/wQj1YQa3RSZAdi070Le8IAX0mwWhPYsbEFZC9nUs/BCms2C0J6FLShrIZt6Fl5Is1kQ2rOwBWUtZFPPwgtpNgtC/3MW/g+UPZUaBCaKpgAAAABJRU5ErkJggg==;" vertex="1" parent="1">
          <mxGeometry x="350" y="363.5" width="49.52" height="65" as="geometry" />
        </mxCell>
        <mxCell id="KkUMTCBFCGIkxOhparHm-4" value="" style="shape=image;verticalLabelPosition=bottom;labelBackgroundColor=default;verticalAlign=top;aspect=fixed;imageAspect=0;image=data:image/png,iVBORw0KGgoAAAANSUhEUgAAAEMAAABrCAIAAACjV6h/AAAHyElEQVR4Ae2bv4qkTBDA97n2ge5lOvAwMBAMJhA6mEAQzmDAQGgwEDowEDwwECYwEAwMBIP+WOusads/o+44u3ffTHDb7XRX1a+qeqzWvjfxr3ze/hUQ8VmSqqryPA/D8HK50O5zOp3IvY9pmjDYdV3GWJIkeZ5/0qebSZqmSdM0CAJK6T2DN39vGIbrupzzsiy3gq0lqaoqDEPLspatA09TSsHZbPTB0FFKdV1fkGYYxuVyWR+r+yRxHNu2PVZp27bneWEY5nl+vV63uhDHl2WZ5znn3Pd9SqmmaYouwzB836/rGqdMNpZIsixTkt627TAMi6KYlPWoi1VVcc4dx5GpdF1njLVtO6dllsTzPPSNZVmc86Zp5qQcdz1NU9d10RLTNKuqmlQ3TYIYlNLPZM6kyh0X67r2fR945mAmSKIoIoToup4kyQ6tx00pigKy/XQ6jbVMkBiGoev60YthbMqaK03TAMz4Z1olaZqGEBIEwRq5XzLmer0SQsb5opJUVUUI8TzvS6xcozRNU0JIHMfK4GkSQkgURcrQ79AtigLupxtICCGO49y9Hz0Nr23bMAzxDrOWxLZtQNc0zff98fJ6GoAQomkazrlpmvArDPXeWhLGWFmWcpVl23YURc9EapomSRLXdTEOhBDf94UQG9YJY0wI0bZtFEWGYeAtlhBimublckmS5Aiquq6zLGOMjSs9x3HwxrCZBFKobVvO+VwNTyn1fZ8xxjnPu8/KxCuKIs/zJEmgXJ4rjaEiRgYQvpMELavrOooix3GWq3E5gLvbtm0HQTBX0n+WBJGEEEVRpGnKGPM8b86d6zFOpxOllDEWRVGe5wsF72NiIpNMtiG7MGEgbQAVDMV9F+xq8jzf9yv/yJhMkjzt4ovkaa5eregVk9WuetrA/2VMHMd5moO3KmrbdkNMJoduVXnQeHhasrYWhttzGIZ3b7cHmTsptq7r8/kMtq0lwULaNM04jr+cp65rxphc760liaII6QkhhmEEQXBEGT/pe/limqae56FnNU1jjE0m//Q+Hog555ObkzRND30eWZYl59x1XTkIhBBKaVmW8MxkbUxwHGy25M0jVrimaZ7PZ8ZYlmVz5bfs3YV2nudxHDPG5spqSimq2EmC6oui8H1feeCNVNiA+pxSCpBY/MoNePdCKZ10EIoihFiWxRhTHgR/lgSR4E2Q7/vjDapsxO726XTyPC+OYwUADXgYCUqERlEUcRyjm5XMXuYxDAM2z7BdWfmLchSJAoZd2HUp/865GWetaTybZI1N+8a8SPb57chZr5gc6d19sv+vMQnDcJ/DnjBrW0wMw3jIb/8RYJzzDbUwPJNfedM9wtw5mYCxjQQKjSAIvnybBVRFUchbJqzWkXl6f+L7PlZQuq5fLpevik/btkmSyO88gGctSRzHdV07jiOXgJZl+b6fZRm64bhGVVVxHCsvtAzDgL3QhuxC4qIo8OQHUmmaBjUsvP15CE9d13DizXVdfKWIGg3DiKII8jzP8z0kYGVd15zz5Q0JnOwKggA2VfAmRKmFsQtj8KwXbtPRdGhomua6bpqmsrM+RYKC2rbNsiwIgmUqxaCtXUppEARzJ38eQ4JI0Lher3Ecz50wWwMAieo4DmMsjmPlfaKiDrqHkExqQn2YS0pjjbnLkvevkwW5z//q2TE5jvBFcpxv90p+xWSv546bty0mnPPjTPmk5LUkcA6SUvpJfcdND4KAEDIuZNWqXggBD56/51FI2GlpmjY+JjJBkmUZFBqWZY3Rj3P2suSyLHGnBcfPlPETJEII3GQSQmzb/toXdFmWyQfS55JlmkQIkaYpbhvhSLfneUmSHPo2S3ZzlmW+78t7FU3TFk7MzpIIIeA0+3jzAMfIHn6AEI8Ons/nsVLP85Yf9yyRgIfgaOjc2ywoy/ENFpa9c/t+2BvCsCiKGGOu61JKlReauCOwLCsMw2UGsPM+CUYcX2TKEUeVD2zouu44ThRFm+r/DSSIJISoqipJEniVJS+nfTzyg4FN1ssm7SSRRcCKgoRRNuj437bkhud5MCxN0zzP5/JQUXG3+xiSu2qeMOBF8gQnb1TxionssF8/3t7efvzqL31033/+7rvP+rs+Jr9/vr/Jn5uxfxMJUNzcLsTvnz/m3P6NY9Jx3EJwL13+YhLFdKn70ZRWUOcD1S/dmD9pO3DXHzl9Vg++m/DmqnUCyuTkGkj6o7K/Jne7mYOJnWH9le5rNFFh7OS8v6ue6NWof1eRCNGpfJv5TepU3lbNoNtN7A0XH+vrHaMkt8GuwRXQKc1VbR/2V5J8TOrUdGmAXgRZA9OB+jZiiCKbqkzrZMnXhjOHZk/0NpDA7J7nZmsXsOVunyEySC9I/mUf+EmmmrBcvbSZpBPQuas37w6JlFAfxiNyR4I91S6hxnZiwPDSPhKwrjdDcZ7Sva2NAciftbewDEZyhparvTUkv3/9UmuPLii9FYpKpduvsB8/5Yh82DEQohp2SExGedCZ0EdkpHJM0oXw/V1KLbC7E3zLN2Du/aMm7Rh1eGVNTHqv3tbmjeJDmmK60u30gc1opGRD55WbZGnIlBxpotpcSaJO+4b9F8n3C8orJq+YHOeBV3Yd59u9kl8x2eu54+a9YnKcb/dKfsVkr+eOm/eKyXG+3Sv5PxyHVn5OxCvOAAAAAElFTkSuQmCC;" vertex="1" parent="1">
          <mxGeometry x="445.99999999999994" y="367.5" width="43.83" height="70" as="geometry" />
        </mxCell>
        <mxCell id="KkUMTCBFCGIkxOhparHm-5" value="" style="shape=image;verticalLabelPosition=bottom;labelBackgroundColor=default;verticalAlign=top;aspect=fixed;imageAspect=0;image=data:image/png,iVBORw0KGgoAAAANSUhEUgAAAD4AAABrCAIAAACg4KZXAAAH/UlEQVR4Ae2bP0jrXhTHnTu6OTp2cxQnx26OHbt1dOzWrWMHwaXQQbAURAQh4INKsBJoJYRWYrHk9Q/xDy2hhL5SnpRS5f6wR29Pb/6nqfp7VMR3cu/NuZ/zzU1ybu59a+R/+7P2vyUn/tH7HUFrnral1O3FXoWLVLjI9dEGnwnZ/0rnu9C4JSbVarrfEUbDB3/yeUAf6vLj3WGNj5XyYXs+H7XS+W5LTOpPl2+vI5eROKP3VK7Gx66y6zZApXwYtKxwkZaYbEsp469ciEIb6XzXxhWfCVW4yPN9dvyi2cdgiT5+0RRh3zgGro82gK+r5PodwbEDm+77HUF/umxLKbkQvTnZMsZT4SI9lbPyYII+GQ9aYhLLLBxv1otxrXk6GQ+sHAVSrj9dNsoJJowKFxlootE/iz7UZar0VXa9XoybnmZ0FGzJaPigVtP4pmpLKaaLOXTKfX20oVbTy9aYQTE97KkcvQgM/Qz97XUkHG/ymZBciC4ygk0JFil8ex2p1TTcCXjoz9Cf77N8JlQvxhfpZnnndpUcnwnV+BjtYobeKCeusus/YZBQOMa4vdi7OdmihTP0ejHOZ0K+323U4/IM8Wy7lA9T/yy6eLb9M+lBWTt0PhMSjje7So4G9+3GUJfpC9gO/fZiD+5l6Xy3q+TcZxTLiHCgiSA2nwldZdel8107dEJIW0rRd/L10YYi7PdU7itjGOpyW0rRxzmfCZXyYSh0QCeEDHVZLkRpAGDcXuy1pVS/IyzjKTTQxOf7bL0Yh3cL7Vo43ny8OwTh2lLKGR2u/lCXFWGf8QVOS/mwXIhCeqg/XbpPu99eR/2O0O8Ij3eHbSlVL8bpOKa4YED+iK+2B3Q6fCErEs+2Ge+BHwrHmzU+ZpXx+kGnMUzGAypYhYssGAzkz/VivC2leir3989v2pGpsRC6qcfR8AHGgFpN4xkGTCyAjJZrzdN+R/CXjQaPbhrPMgpX6MtQ1cnnSnUnhZZR/++qPtTlZQgWiM+WmLRLBMSz7WWkKIujw5TfDp3PhMSz7Z+mfVfJwScWS3T82ahejDu+mRfX0tGD/nRZ4SI0WbJEL+XDPZXDAdxe7GnNU5y+OXYWSIPR8OHx7hCn7BUucnuxZ4dOCBkNH0yT9ce7w6UOpLfXkf502RKTTFYH37MIIfVi3AEdZBvqstUH3goXUYT95/us+zTd9FJA3gZZO4MLI+T6aKMtpehjwy06dDYZD7pKTi5E6YdIOuywAekrpIqKsE/zRMao8TFog8ck9gP2VXa9xse05ikTsDd0fDIsDciFqOm8yUjgqQSChwkk7hTb/tGxF5hztKUUCGl6uW3QpfNdmB9C+u7yMRAMOg4D23TaAZMP+he38W0vF903lpsTV+huVAq6zUr1oBV14+8fVf36aMPlI9aNSIG3sVOdz4RaYjLwLgNxOBkPbk62LNMveP/9QPrxiwYvbAd0PhO6Odny920tEIGxk7fX0ePdIU3+LNFL+TBdReAzoe9d2Pj753dLTFJoGC126ISQrpLDueFVdl0uRJ/vs1+zPNbvCC0xiedHsJo7GQ8qXMQBnRDy9jp6vs/iJXq4DW5OtiDj058ug4pkoIla87QlJvEclGadciFKp2au0Olo63cE4yIJ9QurPBUuUuNjdFbRUzmaMDJGV8lBM9i4xEiL3d6cbKnVNKOON3Qaw98/v5/vszU+hscS7mxxu5QP1/hYV8lZ7VDwiU5jIISMX7R+R7DZguMmjJuTrQoXaZQT7pfWAkDHYTC21VQDRg6dIDNnuTxcLrpLCH/NVuj+dFvsrJXqi+nn7+x/VHXheNOfHl9zlqXqjXKCz4T6HeFrOLz2MhkPYEsMPXG2gUprnvKZ0PXRBk13aKNvN+hUo1FOUJgZOiGE7u9olBMLvvloB4sbdKohHG/i9GYOHeZ/kIHA/qNvXJMZv2h4b6xxOMyhE0Im4wGzpCGebavV9JeNovGL1lVyNT6GczjpfJdJgAmx+F8DPZUzfneGfTaw1T/Y4TTQxK6Sa5QTxk5L+bDV9j9WdTw0YcMbnR1iGegkA9YwYC87pIdWX3KGugwNYM96W0pVuAi9uxjnsLCBd/BiMLDt0KEFXZ0ynYAxXS54KJ5tN8qJnsq5uarO6Ey4/Y6gVtM1Pma8uD648WTXDS6G8YyOTyaEDDSx3xGYSSesdRn/wsT08e7QfmgxXVgdLopu5fcLylfoXyCyoYuV6gZJLAt+xdfWdg6aVvUO1fg0r6q/u2Z+4r+wQyfbgc2hGnv3gA7UDGjzYMdGQ9zTh+3A5lCNHbpFn3Iz2NiPa9uBzaEad+MO3YNDMg2SjilDtKyr5sEObbxz0GSrMStju0Gfenc1LKbYqCV7TMg0Mtpivv4zClrNsDKHbtDdKjEFYWQ2lCFnhjoIzO4BhOldoJuI/qkPXOoPWhMSQsi0KYpnhj6zEJBpIapHpj906gCBmUT43owtpmxsBfik1bQLS8MFOtx4SDjkbFF0g9eA0Q3KzdgR+vwNSJvgFu+FM7aZRRvb9DRr82m5Uf2jQ7PbZw7snWWN0dFQNgOenjv/NJkWmfXziYv/dYn+MWYN6QdDNj1ENEz1e8cz9I/nySzYaes1Qx8YF9uu0acngSr0FTI1GJnnmzCVDPrnXfzh8D1mHBnmNLG9oZs4+L6iFfp3aL9SfaW6JwVWA8aTXAE1XqkekJCe3KxU9yRXQI1XqgckpCc3K9U9yRVQ4/8AiC1UPZVVO2oAAAAASUVORK5CYII=;" vertex="1" parent="1">
          <mxGeometry x="536.17" y="370" width="37.66" height="65" as="geometry" />
        </mxCell>
        <mxCell id="KkUMTCBFCGIkxOhparHm-6" value="" style="shape=image;verticalLabelPosition=bottom;labelBackgroundColor=default;verticalAlign=top;aspect=fixed;imageAspect=0;image=data:image/png,iVBORw0KGgoAAAANSUhEUgAAAIIAAAB/CAIAAACsbY1tAAAU+klEQVR4Ae2dCXATV5rHO5OEyU52JslM1VZtikymUjWbiqVuWYATxhhCgQ3hTAZIwmwIV4BcTJLNcNnY3GSSSQgJBAK7U8AmzGwItiW1DluWD8DYIAswYKt1WPdh+bZ827Jxb14/8lAsyZYU7G6nmlK5PrVfv/f6/3vfO7732mA0/48DCmAcqANfBZrHwIlGwGPgMXBCAU5UgvcGHgMnFOBEJXhv4DFwQgFOVIL3Bh4DJxTgRCV4b+AxcEIBTlSC9wYeAycU4EQleG/gMXBCAU5UgvcGHgMnFOBEJXhv4DFwQgFOVIL3Bh4DJxTgRCV4b+Ax/DgFBgcH36xwii76ztT4flxO7N89jr3hwxturNCHFTf8WkY527vZ1/JH1GC8YnD6O38p0WMKG5ZdjRX61l22/wgR2L91vGLYcMmKabxYjh58ZOYHSFN5nZ99OeOtwbjEoK333yehMJn5NobsakztFquNgf6BeHVg+b7xhyHQ3/8HjQlTu7FsxhWgQ+RSWJ7zVE0dy3LGW/z4w/A/Ri+W58RyqduuADHk6DGV/Xdyvb+nN14p2LxvnGFo7eqZKKcwpX0oAwijwLu50s2mnPGWPc4w7LzqwPJdYVwBYiDN9+dS1+pb41WDtfvGEwZtXevP5WaMrAnvCpCE2jPvnIU1OeMteDxheL7EhBXUgoUCGg9CDakRIy1qV2O8grBz37jBILU3YAorJjEOxwBSUTkT8k0tvQF2FI2r1PGBoSfQ/3SBCYwKoc0/7JXCur3XXXEJws5N4wPDjmsOsFDICZmkhmWQo8fklkdklLW1kx1RYy91HGBwtXc+LKNAjxRJ9LDXNbUbLttiF4SdO8YBhrUXzVjB9+GjsIqHvSg1TVBYCtxN7OgaY6lcx1Dma71ParwTPgpWPLsaXFc5wndWINDkmZRH3RocjFETFpJzGkNfIDAlT4/l/zB8hEhITQ9L9VPyqYgrCSbQ9N/GWhZ0jbFITmM4ZqgNHz7K0YOFtNpzzODt7+9PLbEAVAhPsKGy/1ZO+Xv6YpRlrJNzF4O/u/cxOYWpIoSP8pxPa0zdTGS71NN4T64Bk5nCk1B73tE5x1rXGMvjLobNOnvENi4z35tL6Xwt6GHXXKy5swsU7A3MptDPJNSVek5vCnEUg66u9Z7coI2dIcoWeFaU/WAyam7peFBKYaQlnEOAsXpeSQ1ixkGDixgGBgbmFRmZ9VrQxg4iIbf+Sqq3tXYMUfPzKheYNYXuQ+ToQQiEtMhdzUNu4c5XLmIgrT5MHil8BEbmv1Z5QxUMBAIJSj2W58JywsX+VI4nlAY/VwNNnMPg7+kT5RsxlTNc9wJUTsw39EXYc5bY6kG/FCn8V+DdfYOjm0Kcw5BRYQGnj1AXFGxIDJjcIncOtzB+rpDCNBGC4XLLv0opazMXx2puYbC2dv6GBFqHwZBdjWlqZxcaQ7uj4CvG1o6HSEOEsVqPqT3ryq3B6TlicwvDitIaxhXCde5kzUNy082mthGFy6iwYmpPGJA5ekxqxBRWmYNzm0IcwlDsaZ5AmjDp96ePgrujHD2m8WVcjWoV1tLd+yipZ2JN4SZaaveUfENggFsnmriCoacvIFRRzHotnCso7b9TUE090W6oHTd4MaUNkxjC+EQuKOUwxa1AE1cwHKMinD4CPkFhBd6j1bFNcuYUmyKGx5X2x1Wm5m4OnWjiBIamzu6JsuqIp4/yXbNKLL0RJqmRhooyX+sE0oxJIwSaCjxrL/1gHR4pn7G5zgkMb122Rmy5MvM9OZTOF88CeM15A6bxhV/NyUw/kxiuNLaPjcojlsI+hgpfy72RwkfMhsHrWseIjxE2QU1zO5j+Rto9VXvmFhrC3jj2F1nGcOvWrVmFkcNHUtP9EkpfN9x6bXjJjuk9wwWa5JZv7fFnPnzRMf2WZQykvZ4JH4Wb0jB7O/fkUs+oDe9Wek+ba10dPTE9G03T3b29hLIa7B0Nmf7CryrH4wpDc2dXrNne9fRsYqjv7P4PlTHiBB8Jp3KC5ZjS/hu54T/L7RJr3a1bt6IXQulsAi8FRQo0qd0ZV+Ps9KKvw4gp2cSw/aodK6oP304RA2TkMtsJBV5Mbn22xKKJ5XjkQhA2j7CullselBrsIWHzEYW7uwlYw0A1+h8mjRF385H6oYbEAFZ5EsPLWndVFLENmqbtrR0PSSnQ+4XmlgOOHLxSxnKgiTUMKy9amFBoSLwhlwKTfbkF9CQKG1hM3P4wX0EcmxlIpGB19pDCfNrSEE3DTL/qiOgQEgOW55SwGmhiB4PC2Xi/wgoCbah5ysxgIFW7sTznPWeuP3L22kTpzd/nmxOLrFNL7JOKrE+qax6TVf3qbCU4m6T2gO0dmRlwImv+rHP0jxQjau7snkhWRxyH8lxT1MbuQH80REcjDQsYegP9AnkV6FhyDUCXfBeW53xQSk0rqtmqs+V428pqWyx1jc3+tmBxBwcHW9rajXVNal/7p1XuOcXmX8gM4F5NLVZc/3yprXMkEb+2NgDHihRoUnsOV7F2+pgFDAeqPdj5FtCipSZcbdqoc/zD5KX8Mb9frm/t+lLvnltkBIcHdIF5xcaBkXwirUCPFXjCr6sVtsdVRnc7O5NXFjDsve566rxnq85W4m7s6r0LB7ku1basq3Buv+4ecSKra2j7OWmOeKJJ43u1lJ0DHCxguDU42Bnhfc2Ovv5KX5PEUvulreVDU1PWzdo9+vpPappPWJtUZldNc1ukXejo++tVpWassO7OmIQGJ+ZE0wSpUdcw8s5S9MVFmZIFDKE1a+zu+78a39py6xMq4/25zMHIPKbT19SC2FwBs3lwtupfpBRRYN501a2w1bXH60auts6JpB7sRgQDQLbaM6uACq3haF9hGUNDV+9fqbqJeTVgzlPgBWE4qQmseIccNwKzWCPoTFR2TO3FyJon802HjXV1nTGHN2iaPk55mQlCuJdWwKkD6z8t9aOt+5D8WcPQ1de356b3sXwLmO0orEN1R80zrCExgDlPvmuiyrT/pqeuPba3err7+sBB8UiBJqXjUVl1Y2fMU4Yhysb0lR0MhkZ/Sgmzx6CI0DmEVX/oRQr4UL77twrDV9Et4pA0Sjs80RQhpKj2brs2ppNXFjAonY3/rmR2KIf0PENVDllgR0qgcmByy8wLjm/sTX390S7BlpXZIzqE3PJLqd4yhq/OjTWG4wbvA4oa8PzDvN6cS4GVHfiE677DwgCBJhemtBNq47arjhtNI2yrDQ4OLrnkjng2MKca03hXjeGJpjHFcIry3I5ABDPINTB9iwvoCD95ThDyIy2AFrqotI9MJZcCy/IC7wQJlXbelnXD889q+6W6VmNHn6MrYO7o0zW0ZRucu667phWaMVnNcBkqrP8mra7vGqNjA2OHQWqvv09mAqMxZCBl3nNWuzGZ+QmlYeFFx7sXjZ/ozKdr6uS+9sKGTk19p8zbfsro3as1LS+zPak2gxBpgTfiibxgLwGZu0HciazBpMYJEuoRufEBCcUc7WZ8EZw4HrbTk5kelBltXdEeyUGjTnzGGGHQNbT9gjTdPjsEQnieCTlVUzWmd695impbW7pHnne29/adcTQtuWj7tRS8rwBa/chdFtO5SQxgEixjTmlIou7r8t0Cpb4z3tVJrDDGAkNLT1+CkgILMeaPvyRpzHurfVWNbSOGgMI+jMPf8YHeh8NT31HBGLbVh/UJqQnLc50yjd0ftBwLDGvKbdjl7nsloOcpqW0NBO6Cp/f0BU5YGoUaC3CLPFfEPc6wKg9/UWHFxvzV9lHHcNracJ+8Zs0Vb3ntnVfVwjbzOC52dPd8ZWn4Q7EVLLCZLbkRevzhATBbSQ/LqM8MY+cH8KlHHUOVv7eiaegLUnEoPswtAwMDcnt92nkb2LMDY/iwf3AplEQusz9a4L1XZlqpdRmbR5jsDlOTuH816hjirlkcN8rt9SsuOX4Ft4Py3WBkjjSM5zKzJhjIUtofVZrerHCUeVk7s/STwgDJ1bR2HKhyp5VYJuQwu56FTIxW7Qa9Vr4buEvh7cnC7/NM6yucX9f4fHGFCONoKJFu+QliQI+qb/QftzS+c8W1vLBqgaY6Lf/m/ILqlwur39Y5D5gaSj1N7X3RRj5QnqNk/JQxjJJko5Etj2E0VI05Tx5DzJKNxg08htFQNeY8Y8DQ1dVVWlpaXFx8rqTk3Llz50pKbly/3tX1gxMljY2NJSUlJTBNSQlICb6DKy3N4FURiqKKCguLi4pqa++8fVbn893O9vtb4I3FRUV2+53/EaDy2rULFy7odLrBkf5S1c2bNws1mpKSksbG4V767O7qunTp0sXSUooauv/c3NxcXFxcqNGYTCYkakVFRdnFi6UXLsCLldeuFRcVwaqin8VFRZWVleiWKI0YMFy5cgUXCnGBAH1EOD4nNfVvH33U23s7ICyVSBIJAiVARiKOZ589S9P0mlWrRDieSBDHjh1DVTzx978n4jhKjIxEgsjcvh0mKy8rE+G44KmnCKEwOzsb3RtqDAwMvLhsWSJBiHD89NdfhyZAVz47eBAXCARPPfVMUtIQEtnZ2bCeb77xBkz/t48+gomFAoE6P5+m6UULFohCqi3C8SUvvDBiQ0F1gEYMGLRa7XcSCBMScIFAhOPwQwiFiQTxzsaN7e1g8Zmbk5NIEEPSiHB8kkj09Vdf0TS9+tVXCaFQhONHjx5FVTn6xReTRCIRjsP8hQkJMM2kxMT/eu89mGx7RgYELMLx5xcvRuBRJsgYGBhYtnQpqJ5Q+L+nTqHrQ4yOjo6Zzz4LdRQTxMcffxyc4MyZM7AOb7z+Ok3TeSoVIRQSQqFYJIItIxAILJw/n2DaJVJDhONikWje3LmjiKGiogK206TJk999553333vvxaVL4RUxQXx64ABN01KJBD7Ys9OnZ2Vm7sjK2pGVtTMrKyM9/TrjqmtXr4aPF+wN5WVlWzdvzti2bfHChTDDtNmzM7Zt27JpEymT0TRtsVieSUrCBQJhQgJkXF5eHqxasD0wMPDySy9BqJB98G+RLSfJO9QFgtRZs2C3CROcPXsW1nPL5s0Oh2P6tGnw69o1a3p7QFi+p6fn+UWLYA4b1q/fyTzpjqyszIyMo0eOoFKiNGLwBoiBEAoXL1wIcw8EAtu2boXNZE5aWn9/v0qphM1w9cqVqAbBTSMsBpTy8KFDsGVtz8hAF2ma3r9vnwjHIQBhQoIIx5GXBCeDdjQYAoHAS8uWib53bphnTk4Oyg1iIITC19au3bB+PYSalpqKBhuIAfaTpRcuwBuDnxRlFY0RJwZ0TNHv96ckJ0PftNvthRoN1EssEqXNnp2WmpqWmjo3LW3P7t2wNsNj+PTAAYhh65YtqPbt7e2zZs6E7e7Z6dOht00Wi12u8IcnosFQXFwMMxTh+LTkZFwgIITC1atWoeeCGCB46KDJU6dWVFSgWgV7Q0py8nNz5qSlpqbOnj0nLU17+TJKFqURJwa0YzM4OLiY8U0Rjt+4caOosBA120Qch5/JYvH6detgheLAcOabb6D0yVOnai9fnv/cc7B/OHzoUNiHjAbDpvffhw185auvwqYDtUbtGmGA3aAIxw8wvS4qMRgDHCDhw4oJIp8ZwFHKaIw4MaBW097eDvtNQii02WwIgwjHU5KT4WdGSkpmZiasDcJw/Pjx0PqF9YYVr7wCJduwbl1TU9OWLVsglRkpKQ0NYd4xGRGDxWKZLBZDDzh65EhdXV3a7NkEM+94+623YK0QBoiHEAgWzp9vs915oz0YwzNJSTNSUuDDTp82bZhxK/SR4ZV4MDy/aBHKbu+ePXBsSJ01C4wNKhUcG1auWNHG/PP7/S0tLch7EIYTJ06gTJARiqHy2jU4lxUmJEwWi5OnTk2aPBm10H+cPo3uRUYwhm/PnEHXkXH0yBHossKEhGeSkpKnTkWzuymTJsGVChobFs6fP3PGDOh/C+bN8/lu7wgFjw0ajaazs9PP/Gtri+ckcswYcIHg6aSk9PT0HVlZa1evBrMXgUBMEB99+CFN0zKpFDbVmTNm7Nq5c/euXbt37dq1c2fm9u3BMyVCIFi6ZElWVlZWZmZWZmZGevrnn39O0/TBgweHjA1/3rgRSgYcn1lwJH4/rxXh+J+WL+8POR92GwMzlXz5xRd37NgBS0lPTz958mRra+u8uXPRwJBIEHCFQTDTMND5fPIJTdPZ2dlQ+q1btmi12imTJsGvLy1bVlcH/iOnYG94fcOGPcyT7t61a0dm5pdBc3HEfngjBgxarRZOGYesG8QEsf6115qZRbIkNxeNDVBQ+PPOumHlSigBfCr4W7FIND0lhabpzz/7DF7ZvGkTnKdCqIRQ+MLixfv37ftg//79+/ZB/KC7EApLS0uHPCFcvsFZUHApkxITl/zxj18cPgzzxAWCdzZu/GD//g/279+3d+88ZsghhMLv5sqBQEAikcB74fKNZGa3uECQSBB/Wr68owPsJ8J1A1rloGeZP6rrBp1OB/sf9FOYkDBzxow9u3fDtRtN05LcXDFBoATIEBPE2W+/pWl65YoViSEJEgkidfZsgOHgQbFIJBaJNv3lLzRNHz50SCwSiYRCkVCo0+mQ3G1tbSnJyXCtlL5tG7oOjYGBgaVLloRWI5EgXli8eNHChdADnps7F41wNE2r8/NhQYkEoSkoyMvLSyQIsUj0+oYNMNuTJ0+C9ses4N5+663m5uZFCxaEfZYXFi+OdeYagzd0dHQUqNVKhUKlVCoVijyVSnv5st//gz9dV19fr1AoVEwalVIJP0qFQqlUwhn3jevXSZkM/QoacpIsLyv7LtThdDjkJEnKZAYD+GsW1ysr5SQpJ8nLly4N0RrmQ8pkWq12yK9omtZVVIQtpUKrvXDhgkIul5NkcLCIpulbt26dP3cOlE6SNputublZqVCQMllVVRXKv7ysTE6SSoVCKpG0tLTodDo5SYY+y+hOWFFteOOuKxCDN9z1svkMkQI8BiQFmwaPgU31Udk8BiQFmwaPgU31Udk8BiQFmwaPgU31Udk8BiQFmwaPgU31Udk8BiQFmwaPgU31Udk8BiQFmwaPgU31Udk8BiQFmwaPgU31Udk8BiQFmwaPgU31Udk8BiQFmwaPgU31Udk8BiQFmwaPgU31Udk8BiQFmwaPgU31Udk8BiQFm8b/A4pxgxt/jVLPAAAAAElFTkSuQmCC;" vertex="1" parent="1">
          <mxGeometry x="470" y="451.5" width="50" height="48.85" as="geometry" />
        </mxCell>
        <mxCell id="KkUMTCBFCGIkxOhparHm-8" value="" style="shape=image;verticalLabelPosition=bottom;labelBackgroundColor=default;verticalAlign=top;aspect=fixed;imageAspect=0;image=https://mlflow.org/docs/latest/_static/MLflow-logo-final-black.png;" vertex="1" parent="1">
          <mxGeometry x="520" y="261.83000000000004" width="70" height="25.67" as="geometry" />
        </mxCell>
        <mxCell id="KkUMTCBFCGIkxOhparHm-11" value="" style="shape=image;verticalLabelPosition=bottom;labelBackgroundColor=default;verticalAlign=top;aspect=fixed;imageAspect=0;image=https://vectorseek.com/wp-content/uploads/2023/08/Alation-Logo-Vector.svg-.png;" vertex="1" parent="1">
          <mxGeometry x="532.78" y="563.84" width="130" height="22.32" as="geometry" />
        </mxCell>
        <mxCell id="KkUMTCBFCGIkxOhparHm-14" value="Platform" style="rounded=0;whiteSpace=wrap;html=1;align=left;" vertex="1" parent="1">
          <mxGeometry x="140" y="627" width="620" height="60" as="geometry" />
        </mxCell>
        <mxCell id="KkUMTCBFCGIkxOhparHm-15" value="" style="image;aspect=fixed;html=1;points=[];align=center;fontSize=12;image=img/lib/azure2/security/Key_Vaults.svg;" vertex="1" parent="1">
          <mxGeometry x="316" y="642" width="34" height="34" as="geometry" />
        </mxCell>
        <mxCell id="KkUMTCBFCGIkxOhparHm-16" value="" style="image;aspect=fixed;html=1;points=[];align=center;fontSize=12;image=img/lib/azure2/management_governance/Monitor.svg;" vertex="1" parent="1">
          <mxGeometry x="426.5" y="643.47" width="32" height="32" as="geometry" />
        </mxCell>
        <mxCell id="KkUMTCBFCGIkxOhparHm-17" value="" style="image;aspect=fixed;html=1;points=[];align=center;fontSize=12;image=img/lib/azure2/general/Cost_Management.svg;" vertex="1" parent="1">
          <mxGeometry x="535.78" y="642" width="35.73" height="32" as="geometry" />
        </mxCell>
        <mxCell id="KkUMTCBFCGIkxOhparHm-18" value="" style="dashed=0;outlineConnect=0;html=1;align=center;labelPosition=center;verticalLabelPosition=bottom;verticalAlign=top;shape=mxgraph.weblogos.github" vertex="1" parent="1">
          <mxGeometry x="650" y="640.97" width="38.61" height="34.5" as="geometry" />
        </mxCell>
        <mxCell id="KkUMTCBFCGIkxOhparHm-19" value="" style="image;aspect=fixed;html=1;points=[];align=center;fontSize=12;image=img/lib/azure2/other/Entra_Identity.svg;" vertex="1" parent="1">
          <mxGeometry x="220" y="640" width="36" height="32" as="geometry" />
        </mxCell>
        <mxCell id="KkUMTCBFCGIkxOhparHm-20" value="Collabration" style="rounded=0;whiteSpace=wrap;html=1;direction=south;horizontal=1;verticalAlign=top;" vertex="1" parent="1">
          <mxGeometry x="650" y="176" width="110" height="150" as="geometry" />
        </mxCell>
        <mxCell id="KkUMTCBFCGIkxOhparHm-22" value="" style="shape=image;verticalLabelPosition=bottom;labelBackgroundColor=default;verticalAlign=top;aspect=fixed;imageAspect=0;image=https://user-images.githubusercontent.com/1446829/144671151-b095e1b9-2d24-4d3b-b3c6-a7041e491077.png;" vertex="1" parent="1">
          <mxGeometry x="662.78" y="235" width="47.22" height="40" as="geometry" />
        </mxCell>
        <mxCell id="KkUMTCBFCGIkxOhparHm-23" value="Consumer" style="rounded=0;whiteSpace=wrap;html=1;direction=south;horizontal=1;verticalAlign=top;" vertex="1" parent="1">
          <mxGeometry x="650" y="359" width="110" height="170" as="geometry" />
        </mxCell>
        <mxCell id="KkUMTCBFCGIkxOhparHm-24" value="" style="endArrow=classic;html=1;rounded=0;exitX=0.5;exitY=0;exitDx=0;exitDy=0;entryX=0.5;entryY=1;entryDx=0;entryDy=0;" edge="1" parent="1" source="jRpKmqhvLrliLZ2Tn-jW-3" target="jRpKmqhvLrliLZ2Tn-jW-12">
          <mxGeometry width="50" height="50" relative="1" as="geometry">
            <mxPoint x="370" y="420" as="sourcePoint" />
            <mxPoint x="240" y="370" as="targetPoint" />
          </mxGeometry>
        </mxCell>
        <mxCell id="KkUMTCBFCGIkxOhparHm-28" value="" style="endArrow=classic;startArrow=classic;html=1;rounded=0;entryX=0.75;entryY=1;entryDx=0;entryDy=0;exitX=0.75;exitY=0;exitDx=0;exitDy=0;" edge="1" parent="1" source="KkUMTCBFCGIkxOhparHm-9" target="jRpKmqhvLrliLZ2Tn-jW-15">
          <mxGeometry width="50" height="50" relative="1" as="geometry">
            <mxPoint x="536.1716" y="347.38" as="sourcePoint" />
            <mxPoint x="531.37" y="300" as="targetPoint" />
          </mxGeometry>
        </mxCell>
        <mxCell id="KkUMTCBFCGIkxOhparHm-33" value="" style="endArrow=classic;html=1;rounded=0;exitX=1;exitY=0.5;exitDx=0;exitDy=0;" edge="1" parent="1" source="KkUMTCBFCGIkxOhparHm-20" target="KkUMTCBFCGIkxOhparHm-23">
          <mxGeometry width="50" height="50" relative="1" as="geometry">
            <mxPoint x="620" y="280" as="sourcePoint" />
            <mxPoint x="640" y="299" as="targetPoint" />
          </mxGeometry>
        </mxCell>
        <mxCell id="KkUMTCBFCGIkxOhparHm-34" value="" style="endArrow=classic;html=1;rounded=0;exitX=1;exitY=0.5;exitDx=0;exitDy=0;entryX=0.19;entryY=0.398;entryDx=0;entryDy=0;entryPerimeter=0;" edge="1" parent="1" source="KkUMTCBFCGIkxOhparHm-3" target="KkUMTCBFCGIkxOhparHm-4">
          <mxGeometry width="50" height="50" relative="1" as="geometry">
            <mxPoint x="305" y="285" as="sourcePoint" />
            <mxPoint x="340" y="280" as="targetPoint" />
          </mxGeometry>
        </mxCell>
        <mxCell id="KkUMTCBFCGIkxOhparHm-35" value="" style="endArrow=classic;html=1;rounded=0;entryX=0.164;entryY=0.4;entryDx=0;entryDy=0;entryPerimeter=0;" edge="1" parent="1" target="KkUMTCBFCGIkxOhparHm-5">
          <mxGeometry width="50" height="50" relative="1" as="geometry">
            <mxPoint x="476" y="397" as="sourcePoint" />
            <mxPoint x="350" y="290" as="targetPoint" />
          </mxGeometry>
        </mxCell>
        <mxCell id="KkUMTCBFCGIkxOhparHm-39" value="" style="endArrow=classic;html=1;rounded=0;exitX=0.5;exitY=0;exitDx=0;exitDy=0;entryX=0.019;entryY=0.542;entryDx=0;entryDy=0;entryPerimeter=0;" edge="1" parent="1" source="jRpKmqhvLrliLZ2Tn-jW-12" target="KkUMTCBFCGIkxOhparHm-37">
          <mxGeometry width="50" height="50" relative="1" as="geometry">
            <mxPoint x="297.56" y="339" as="sourcePoint" />
            <mxPoint x="332.56" y="339" as="targetPoint" />
          </mxGeometry>
        </mxCell>
        <mxCell id="KkUMTCBFCGIkxOhparHm-41" value="Unity Catalog" style="text;html=1;align=center;verticalAlign=middle;whiteSpace=wrap;rounded=0;" vertex="1" parent="1">
          <mxGeometry x="390" y="560" width="99.83" height="30" as="geometry" />
        </mxCell>
        <mxCell id="KkUMTCBFCGIkxOhparHm-43" value="GitHub" style="text;html=1;align=center;verticalAlign=middle;whiteSpace=wrap;rounded=0;" vertex="1" parent="1">
          <mxGeometry x="680" y="642" width="61.83" height="30" as="geometry" />
        </mxCell>
        <mxCell id="KkUMTCBFCGIkxOhparHm-44" value="Cost Management" style="text;html=1;align=center;verticalAlign=middle;whiteSpace=wrap;rounded=0;" vertex="1" parent="1">
          <mxGeometry x="572" y="644" width="72.83" height="30" as="geometry" />
        </mxCell>
        <mxCell id="KkUMTCBFCGIkxOhparHm-45" value="Key Vault" style="text;html=1;align=center;verticalAlign=middle;whiteSpace=wrap;rounded=0;" vertex="1" parent="1">
          <mxGeometry x="351" y="645" width="72.83" height="30" as="geometry" />
        </mxCell>
        <mxCell id="KkUMTCBFCGIkxOhparHm-46" value="Azure Monitor" style="text;html=1;align=center;verticalAlign=middle;whiteSpace=wrap;rounded=0;" vertex="1" parent="1">
          <mxGeometry x="458.5" y="644.47" width="72.83" height="30" as="geometry" />
        </mxCell>
        <mxCell id="KkUMTCBFCGIkxOhparHm-47" value="Entra ID" style="text;html=1;align=center;verticalAlign=middle;whiteSpace=wrap;rounded=0;" vertex="1" parent="1">
          <mxGeometry x="250" y="646" width="72.83" height="30" as="geometry" />
        </mxCell>
        <mxCell id="KkUMTCBFCGIkxOhparHm-49" value="" style="endArrow=classic;startArrow=classic;html=1;rounded=0;entryX=0.25;entryY=1;entryDx=0;entryDy=0;exitX=0.25;exitY=0;exitDx=0;exitDy=0;" edge="1" parent="1" source="KkUMTCBFCGIkxOhparHm-9" target="jRpKmqhvLrliLZ2Tn-jW-15">
          <mxGeometry width="50" height="50" relative="1" as="geometry">
            <mxPoint x="541" y="352" as="sourcePoint" />
            <mxPoint x="541.37" y="310" as="targetPoint" />
          </mxGeometry>
        </mxCell>
        <mxCell id="KkUMTCBFCGIkxOhparHm-50" value="" style="endArrow=classic;html=1;rounded=0;exitX=0.997;exitY=0.346;exitDx=0;exitDy=0;exitPerimeter=0;" edge="1" parent="1" source="KkUMTCBFCGIkxOhparHm-37">
          <mxGeometry width="50" height="50" relative="1" as="geometry">
            <mxPoint x="715" y="336" as="sourcePoint" />
            <mxPoint x="650" y="280" as="targetPoint" />
          </mxGeometry>
        </mxCell>
        <mxCell id="KkUMTCBFCGIkxOhparHm-52" value="" style="endArrow=classic;html=1;rounded=0;exitX=0.99;exitY=0.655;exitDx=0;exitDy=0;exitPerimeter=0;entryX=0.233;entryY=0.936;entryDx=0;entryDy=0;entryPerimeter=0;" edge="1" parent="1" source="KkUMTCBFCGIkxOhparHm-37" target="KkUMTCBFCGIkxOhparHm-23">
          <mxGeometry width="50" height="50" relative="1" as="geometry">
            <mxPoint x="725" y="346" as="sourcePoint" />
            <mxPoint x="725" y="379" as="targetPoint" />
          </mxGeometry>
        </mxCell>
        <mxCell id="KkUMTCBFCGIkxOhparHm-58" value="" style="rounded=0;whiteSpace=wrap;html=1;fillColor=#f5f5f5;fontColor=#333333;strokeColor=#666666;" vertex="1" parent="1">
          <mxGeometry x="678" y="399" width="60" height="40" as="geometry" />
        </mxCell>
        <mxCell id="KkUMTCBFCGIkxOhparHm-59" value="" style="rounded=0;whiteSpace=wrap;html=1;fillColor=#f5f5f5;fontColor=#333333;strokeColor=#666666;" vertex="1" parent="1">
          <mxGeometry x="678" y="460.35" width="60" height="40" as="geometry" />
        </mxCell>
      </root>
    </mxGraphModel>
  </diagram>
  <diagram id="MqEjt3uLS-aqU_fu-Rgw" name="Page-2">
    <mxGraphModel dx="780" dy="595" grid="1" gridSize="10" guides="1" tooltips="1" connect="1" arrows="1" fold="1" page="1" pageScale="1" pageWidth="850" pageHeight="1100" math="0" shadow="0">
      <root>
        <mxCell id="0" />
        <mxCell id="1" parent="0" />
      </root>
    </mxGraphModel>
  </diagram>
</mxfile>
